<svg width="80" height="22" viewBox="0 0 80 22" fill="none" xmlns="http://www.w3.org/2000/svg">
<g clip-path="url(#clip0_312_2)">
<path d="M53.2278 0V15.4903C55.1591 15.5792 57.0852 15.6866 59.0059 15.8134V19.0977C55.9596 18.8967 52.9101 18.7442 49.8588 18.6402V0H53.2278ZM80.0002 0.00185507L75.6131 10.0647L79.9991 21.2628L79.9942 21.2648C78.7154 21.0848 77.4354 20.9136 76.1542 20.7511L73.6913 14.4662L71.2049 20.1677C70.0253 20.0388 68.845 19.9172 67.6639 19.8029L71.9406 9.99729L68.0239 0.00200966H71.6684L73.8614 5.59567L76.2999 0.00185507H80.0002ZM38.2959 18.4774V0.00170048H47.7006V3.31548H41.665V7.60997H46.2317V10.8942H41.665V18.4768L38.2959 18.4774ZM25.7158 3.31563V0.00154589H36.1361V3.31548H32.6103V18.5673C31.4858 18.5966 30.3625 18.631 29.2416 18.6728V3.31563H25.7158ZM14.1983 19.6276V0.00216425H23.5561V3.31579H17.5669V7.80444C18.9428 7.78698 20.8992 7.76734 22.1164 7.77012V11.0547C20.5928 11.0361 18.873 11.0754 17.5669 11.0882V16.0604C19.5618 15.9049 21.5583 15.7699 23.5561 15.6554V18.94C20.4332 19.1182 17.3135 19.3476 14.1983 19.6279V19.6276ZM7.58938 12.0354L7.58922 0.00154589H10.9583V19.9374C9.72672 20.0626 8.49734 20.196 7.27031 20.3368L3.36891 9.24815V20.8117C2.24504 20.9564 1.12205 21.1077 0 21.2656V0.00185507H3.20172L7.58938 12.0354ZM61.7853 19.2957V0.00185507H65.1545V19.571C64.0328 19.4721 62.9102 19.3807 61.7853 19.2957Z" fill="#DB202C"/>
</g>
<defs>
<clipPath id="clip0_312_2">
<rect width="80" height="21.3333" fill="white"/>
</clipPath>
</defs>
</svg>
